<svg width="228" height="140" viewBox="0 0 228 140" fill="none" xmlns="http://www.w3.org/2000/svg">
<path d="M88 71L100.697 93H126.303L139 71L126.303 49H100.698L88 71Z" fill="var(--theme-primary,#ca3535)" fill-opacity="0.2"/>
<path d="M34.542 70.1602L53.6514 102.88H38.877L20 70.4395L38.877 38H53.3252L34.542 70.1602ZM206.651 70.4404L187.774 102.88H173.326L192.109 70.7197L173 38H187.774L206.651 70.4404Z" fill="var(--theme-primary,#ca3535)" fill-opacity="0.8"/>
<path d="M147.25 128H79.75L53.5645 83H81.332L93.5518 104H133.448L145.668 83H173.436L147.25 128Z" fill="var(--theme-primary,#ca3535)"/>
<path d="M173.436 57H145.668L133.448 36H93.5527L81.332 57H53.5645L79.75 12H147.25L173.436 57Z" fill="var(--theme-primary,#ca3535)"/>
<path d="M77.5957 130.955H100.811L103.137 135H74.1299L59 109H64.8203L77.5957 130.955ZM153.007 135H124L126.326 130.955H149.541L162.316 109H168.137L153.007 135ZM10.2324 70.7734L16.9902 82.3447H11.792L5 70.6719L11.792 59H17.1084L10.2324 70.7734ZM222.108 69.6729L215.316 81.3447H210L216.876 69.5713L210.118 58H215.316L222.108 69.6729ZM100.811 10.0449H77.5957L64.8203 32H59L74.1299 6H103.137L100.811 10.0449ZM168.137 32H162.316L149.541 10.0449H126.326L124 6H153.007L168.137 32Z" fill="var(--theme-primary,#ca3535)" fill-opacity="0.6"/>
</svg>
